<svg xmlns="http://www.w3.org/2000/svg" viewBox="0 0 48 48" width="20" height="20">
  <path fill="#4285F4" d="M24 9.5c3.05 0 5.55 1.1 7.2 2.5l5.4-5.4C33.55 3.55 29.2 2 24 2 14.95 2 7.35 7.4 4.2 15h6.95c1.55-4.55 5.8-8 12.85-8z"/>
  <path fill="#34A853" d="M46.1 24.5c0-1.65-.15-3.15-.4-4.5H24v9h12.55c-.55 3-2.15 5.5-4.55 7.2l7 5.4c4.15-3.8 6.1-9.4 6.1-16.1z"/>
  <path fill="#FBBC05" d="M11.15 28.45C10.3 26.3 10 24 10 21.5s.3-4.8 1.15-6.95l-7-5.4C1.6 12.95 0 17 0 21.5s1.6 8.55 4.15 12.35l7-5.4z"/>
  <path fill="#EA4335" d="M24 43c5.2 0 9.55-1.7 12.75-4.65l-7-5.4c-2 1.35-4.55 2.1-7.75 2.1-7.05 0-11.3-4.45-12.85-8l-7 5.4C7.35 40.6 14.95 46 24 46z"/>
  <path fill="none" d="M0 0h48v48H0z"/>
</svg>
